<svg width="16" height="16" viewBox="0 0 16 16" fill="none" xmlns="http://www.w3.org/2000/svg">
<path d="M13.2894 5.02837C13.2395 4.97618 13.1794 4.93465 13.113 4.90628C13.0465 4.87791 12.975 4.86328 12.9028 4.86328C12.8305 4.86328 12.759 4.87791 12.6925 4.90628C12.6261 4.93465 12.566 4.97618 12.5161 5.02837L7.94531 9.59912L3.37456 5.02837C3.32458 4.97618 3.26455 4.93465 3.1981 4.90628C3.13164 4.87791 3.06013 4.86328 2.98788 4.86328C2.91562 4.86328 2.84411 4.87791 2.77765 4.90628C2.7112 4.93465 2.65117 4.97618 2.6012 5.02837C2.50128 5.1303 2.44531 5.26735 2.44531 5.41009C2.44531 5.55283 2.50128 5.68988 2.6012 5.79181L7.94531 11.1359L13.2894 5.79181C13.3893 5.68988 13.4453 5.55283 13.4453 5.41009C13.4453 5.26735 13.3893 5.1303 13.2894 5.02837Z" fill="#303030"/>
</svg>
