<svg width="13" height="16" viewBox="0 0 13 16" fill="none" xmlns="http://www.w3.org/2000/svg">
<path d="M4.11843 4.16574C4.08099 4.20159 4.0512 4.24466 4.03085 4.29233C4.01049 4.34 4 4.3913 4 4.44314C4 4.49498 4.01049 4.54628 4.03085 4.59396C4.0512 4.64163 4.08099 4.68469 4.11843 4.72055L7.39749 7.99961L4.11843 11.2787C4.08099 11.3145 4.0512 11.3576 4.03085 11.4053C4.01049 11.4529 4 11.5042 4 11.5561C4 11.6079 4.01049 11.6592 4.03085 11.7069C4.0512 11.7546 4.08099 11.7976 4.11843 11.8335C4.19156 11.9052 4.28988 11.9453 4.39228 11.9453C4.49468 11.9453 4.593 11.9052 4.66613 11.8335L8.5 7.99961L4.66613 4.16574C4.593 4.09406 4.49468 4.05391 4.39228 4.05391C4.28988 4.05391 4.19156 4.09406 4.11843 4.16574Z" fill="#303030"/>
</svg>
