<svg width="795" height="222" viewBox="0 0 795 222" fill="none" xmlns="http://www.w3.org/2000/svg">
<path d="M342.416 1.19793C349.355 1.50883 356.194 2.50697 362.615 5.3705C367.966 7.7595 372.163 11.3103 373.969 16.9555C375.624 22.1753 375.44 27.4606 373.283 32.484C370.942 37.9656 367.08 42.2527 361.528 44.8545C359.856 45.6399 358 46.0981 356.228 46.6871C354.606 47.2107 354.539 47.3253 355.458 48.6998C361.662 57.9122 367.832 67.1409 374.086 76.3205C375.624 78.5786 377.263 80.804 379.069 82.8821C380.875 84.9602 383.216 86.3184 386.042 86.7929C386.593 86.8911 387.463 87.3329 387.53 87.7256C387.68 88.6746 387.53 89.7055 387.329 90.6709C387.279 90.8836 386.493 91.1127 386.075 91.08C375.089 90.2946 366.11 85.9256 359.873 76.8278C353.837 68.0081 347.9 59.123 341.948 50.2543C341.312 49.3052 340.56 48.9125 339.389 48.9289C333.069 48.9779 326.748 48.9289 320.428 48.9452C318.923 48.9452 318.705 49.1252 318.705 50.5652C318.705 59.483 318.638 68.4008 318.772 77.3023C318.789 79.0204 319.357 80.804 320.026 82.424C320.913 84.5839 322.769 85.8111 325.076 86.4165C326.949 86.9074 327.885 88.8383 326.949 90.4746C326.731 90.8509 325.962 91.08 325.427 91.0964C323.488 91.1618 321.531 91.1127 319.592 91.1291C312.97 91.1291 306.348 91.1291 299.727 91.1945C298.556 91.1945 298.205 90.7364 298.205 89.7382C298.205 89.3291 298.272 88.9037 298.205 88.4946C298.038 87.3165 298.59 86.6947 299.727 86.482C303.941 85.7293 306.415 81.7531 306.449 78.235C306.449 77.1714 306.516 76.0915 306.516 75.0279C306.516 51.0724 306.499 27.117 306.482 3.17786C306.482 1.01794 306.532 0.968851 308.706 0.968851C314.542 0.968851 337.032 0.919762 342.433 1.16521L342.416 1.19793ZM318.672 24.9898C318.672 30.635 318.672 36.2639 318.672 41.9091C318.672 43.8563 318.906 44.0854 320.846 44.0854C325.528 44.0854 330.193 44.1345 334.875 44.069C339.741 43.9872 344.59 43.66 349.171 41.8437C353.469 40.1419 356.947 37.5893 358.987 33.3513C361.06 29.0151 361.261 24.4825 360.358 19.9336C359.321 14.7301 356.261 10.9176 351.261 8.65947C347.733 7.05589 344.038 6.23774 340.175 6.17229C333.738 6.05775 327.3 6.00866 320.879 5.95957C318.873 5.94321 318.655 6.15593 318.655 8.0704C318.655 13.7156 318.655 19.3445 318.655 24.9898H318.672Z" fill="black"/>
<path d="M654.065 221.526C648.43 221.575 642.878 220.937 637.511 219.333C626.709 216.126 617.897 210.072 611.309 201.088C603.784 190.829 601.761 179.309 604.018 167.037C606.744 152.212 615.823 142.002 629.083 135.047C637.895 130.433 647.46 129.189 657.325 129.598C671.17 130.187 683.026 135.162 692.64 144.996C697.841 150.314 701.469 156.516 703.392 163.699C705.348 171.046 705.499 178.426 703.844 185.756C701.687 195.345 696.453 203.216 688.828 209.564C680.066 216.879 669.9 220.724 658.429 221.313C656.974 221.395 655.519 221.444 654.065 221.509V221.526ZM690.684 177.902C690.734 173.451 690.517 169.033 689.597 164.632C688.31 158.528 685.868 152.981 682.24 147.925C678.31 142.443 673.227 138.271 666.689 136.127C658.529 133.444 650.252 133.722 642.126 136.193C632.645 139.089 626.324 145.601 622.044 154.159C619.619 159.003 618.315 164.157 617.729 169.524C616.542 180.455 618.248 190.829 624.017 200.401C626.993 205.326 630.822 209.483 635.889 212.461C642.811 216.519 650.353 217.37 658.195 216.568C661.957 216.175 665.636 215.39 669.08 213.868C679.079 209.417 684.898 201.465 688.326 191.581C689.848 187.18 690.584 182.598 690.684 177.918V177.902Z" fill="black"/>
<path d="M410.286 176.331C410.286 186.313 410.253 196.294 410.32 206.292C410.32 207.814 410.587 209.368 411.056 210.825C412.009 213.737 413.965 215.684 417.192 216.274C417.778 216.372 418.664 216.797 418.747 217.206C418.948 218.155 418.831 219.186 418.647 220.168C418.614 220.381 417.811 220.61 417.376 220.61C410.805 220.626 404.25 220.61 397.679 220.61C396.675 220.61 396.207 220.233 396.324 219.219C396.374 218.744 396.358 218.27 396.324 217.795C396.291 216.928 396.675 216.388 397.578 216.388C401.943 216.388 404.451 212.33 404.802 208.55C404.902 207.552 404.902 206.538 404.902 205.523C404.902 186.035 404.902 166.53 404.902 147.042C404.902 144.244 404.835 141.445 403.447 138.893C402.327 136.815 400.555 135.604 398.23 135.08C397.562 134.933 396.558 135.195 396.441 134.229C396.308 133.182 396.358 132.102 396.558 131.071C396.609 130.842 397.612 130.662 398.18 130.662C403.096 130.63 408.029 130.826 412.945 130.58C415.804 130.433 417.56 131.448 419.366 133.558C427.141 142.673 435.117 151.623 443.026 160.623C452.524 171.423 462.022 182.222 471.519 193.022C473.108 194.822 474.68 196.638 476.285 198.405C476.603 198.765 477.138 198.929 477.572 199.191C477.74 198.732 478.057 198.274 478.074 197.816C478.124 194.723 478.091 191.631 478.091 188.538C478.091 174.401 478.141 160.247 478.041 146.109C478.041 143.9 477.539 141.642 476.887 139.498C476.134 137.011 473.994 135.8 471.503 135.195C469.596 134.72 469.596 134.737 469.596 132.871C469.596 132.511 469.596 132.151 469.563 131.808C469.496 131.055 469.847 130.695 470.6 130.679C470.968 130.679 471.335 130.679 471.687 130.679C477.823 130.679 483.96 130.679 490.097 130.679C491.836 130.679 491.919 130.777 491.953 132.495C491.986 134.671 491.986 134.671 489.762 135.44C489.026 135.702 488.274 135.98 487.572 136.324C485.047 137.551 483.927 139.727 483.592 142.329C483.425 143.671 483.442 145.062 483.442 146.42C483.442 170.555 483.442 194.674 483.442 218.81C483.442 220.561 483.375 220.512 481.619 220.659C479.93 220.79 478.793 220.152 477.723 218.924C465.349 204.754 452.925 190.633 440.502 176.495C431.088 165.777 421.674 155.059 412.26 144.358C411.992 144.047 411.708 143.704 411.373 143.474C410.788 143.082 410.32 143.196 410.236 143.965C410.203 144.309 410.236 144.685 410.236 145.029C410.236 155.485 410.236 165.957 410.236 176.413L410.286 176.331Z" fill="black"/>
<path d="M553.57 129.597C562.533 129.712 570.358 132.854 577.314 138.302C581.411 141.51 584.488 145.42 586.009 150.313C586.762 152.735 587.196 155.287 587.431 157.824C587.815 162.094 587.648 166.381 586.31 170.538C584.906 174.906 582.565 178.768 579.237 181.992C573.335 187.686 566.228 191.057 558.018 192.088C554.891 192.48 551.731 192.742 548.587 192.742C541.631 192.742 535.16 190.991 529.324 187.162C528.204 186.426 527.702 186.59 527.719 187.784C527.786 195.033 527.803 202.282 528.07 209.531C528.171 212.1 529.458 214.341 532.05 215.487C532.919 215.863 533.889 216.076 534.842 216.239C536.665 216.583 536.749 216.632 536.749 218.383C536.749 218.678 536.749 218.972 536.765 219.267C536.849 220.216 536.314 220.543 535.461 220.576C535.16 220.576 534.859 220.576 534.541 220.576C526.097 220.576 517.653 220.576 509.192 220.576C508.289 220.576 507.152 220.936 507.002 219.414C506.784 217.009 507.002 216.485 508.69 216.141C512.386 215.405 514.275 212.951 515.061 209.612C515.463 207.894 515.58 206.078 515.58 204.294C515.613 179.979 515.613 155.68 515.613 131.365C515.613 129.695 515.78 129.515 517.469 129.515C523.974 129.515 530.478 129.515 536.983 129.515C536.983 129.515 548.052 129.499 553.57 129.565V129.597ZM529.943 134.31C527.886 134.31 527.702 134.457 527.702 136.372C527.702 149.789 527.702 163.223 527.719 176.641C527.719 177.312 527.853 178.146 528.254 178.637C531.348 182.433 535.194 185.297 540.009 186.639C546.28 188.373 552.617 188.357 558.887 186.639C563.603 185.33 567.348 182.63 569.84 178.392C571.596 175.397 572.565 172.174 572.95 168.787C573.736 161.783 573.937 154.813 571.713 147.973C569.221 140.315 563.67 136.093 555.744 135.03C550.778 134.359 533.505 134.31 529.926 134.31H529.943Z" fill="black"/>
<path d="M47.939 0.150002C58.8579 0.689982 67.8874 5.25526 75.0273 13.3222C77.4853 16.1039 78.8063 19.4747 79.7427 23.0419C80.5788 26.249 80.7125 29.4889 80.6456 32.7615C80.4617 43.2175 75.5457 51.1208 66.8005 56.8479C60.3629 61.0532 53.156 62.9022 45.481 63.1967C41.1502 63.3603 36.8362 63.2458 32.6224 62.1495C29.0775 61.2332 25.7333 59.875 22.69 57.846C22.272 57.5678 21.3022 56.9297 20.8507 56.5533C20.8005 57.126 20.7838 58.3205 20.7838 58.8442C20.7504 64.6694 20.6835 70.4946 20.834 76.3199C20.8841 78.4307 21.252 80.5906 21.8707 82.6033C22.5563 84.7795 24.3287 86.0559 26.6697 86.514C27.2716 86.6286 27.8569 86.7922 28.4588 86.874C29.4621 87.0049 29.8969 87.4631 29.8969 88.5267C29.9136 91.0629 29.83 91.1938 27.1379 91.1938C18.8107 91.1938 10.4836 91.1938 2.15642 91.1938C1.20332 91.1938 0.300373 91.292 0.11644 90.0321C-0.201262 87.9376 0.0829979 86.9885 1.57118 86.7758C5.83508 86.1868 8.35998 82.0633 8.49375 78.0871C8.59408 75.4199 8.66096 72.7364 8.66096 70.0692C8.66096 47.2428 8.66096 24.4327 8.66096 1.60631C8.66096 0.199092 8.82818 0.0518243 10.5839 0.0518243C17.0216 0.0518243 41.9528 -0.128169 47.9557 0.182728L47.939 0.150002ZM20.7838 26.9363C20.7838 33.416 20.7504 39.8958 20.8173 46.3755C20.8173 47.39 20.9678 48.65 21.5697 49.3863C25.1815 53.8043 29.8467 56.6842 35.5486 57.7806C41.1837 58.8605 46.7853 58.6969 52.3032 57.0279C57.6373 55.4079 61.4832 52.1353 63.8743 47.1773C65.3458 44.1174 65.8976 40.8448 66.2487 37.5395C66.951 30.9779 66.8005 24.4491 64.7438 18.133C63.0717 12.9786 59.6271 9.19875 54.4436 7.02247C50.3803 5.32072 46.1164 4.928 41.7856 4.87892C35.6489 4.7971 29.5123 4.84619 23.3756 4.82983C20.9678 4.82983 20.7838 4.97709 20.7838 7.33337C20.7838 13.8786 20.7838 20.4074 20.7838 26.9526V26.9363Z" fill="black"/>
<path d="M126.796 1.00026C135.123 1.00026 143.45 1.09844 151.778 0.967531C156.326 0.885716 160.857 0.394825 165.405 0.0839281C167.557 -0.0687934 168.627 0.902079 168.616 2.99655C168.616 7.03821 168.616 11.0799 168.616 15.1215C168.616 16.8233 168.482 16.9378 166.76 16.9706C166.275 16.9706 165.79 16.9378 165.305 16.9706C164.385 17.0524 163.867 16.6924 163.516 15.8252C160.907 9.26358 155.389 6.90731 148.784 6.26915C146.427 6.04007 144.052 5.97462 141.678 5.95825C133.535 5.92553 125.392 5.94189 117.248 5.94189C115.175 5.94189 115.024 6.05643 115.024 8.01999C115.024 18.9505 115.024 29.8973 115.024 40.8278C115.024 42.9223 115.125 43.0041 117.315 43.0041C122.967 43.0041 128.619 43.0696 134.27 42.9714C136.127 42.9387 138.016 42.6605 139.805 42.1533C141.946 41.5478 143.35 39.977 144.22 37.948C145.139 35.788 146.293 35.2971 148.634 35.8699C149.487 36.0662 149.637 36.6226 149.637 37.3262C149.637 38.6352 149.637 39.9442 149.637 41.2533C149.637 45.3604 149.604 49.4512 149.654 53.5583C149.654 54.7037 149.269 55.2437 148.099 55.1782C147.798 55.1619 147.497 55.1782 147.179 55.1782C144.939 55.1782 144.872 55.1946 144.153 53.1656C143.049 50.0566 140.859 48.4203 137.548 48.1748C136.344 48.0767 135.123 47.9949 133.903 47.9949C128.251 47.9785 122.599 47.9785 116.947 47.9949C115.192 47.9949 115.058 48.1094 115.058 49.7948C115.058 61.3798 115.058 72.9812 115.058 84.5662C115.058 86.2516 115.175 86.317 116.981 86.317C126.278 86.317 135.575 86.317 144.872 86.317C149.988 86.317 155.072 85.9407 160.021 84.5335C163.934 83.4208 167.495 81.7027 169.954 78.3319C170.99 76.9083 171.776 75.3865 171.927 73.6193C172.027 72.5557 172.545 72.0648 173.682 72.0158C176.926 71.8521 177.344 72.2939 176.408 75.3865C174.268 82.4226 169.469 87.0697 162.546 89.7042C159.62 90.8169 156.56 91.2096 153.433 91.226C134.404 91.226 115.392 91.226 96.3636 91.226C95.5275 91.226 94.6246 91.4059 94.4072 90.1951C94.0561 88.2151 94.3738 86.9879 95.6279 86.7261C101.38 85.5643 102.701 81.5227 102.918 76.8756C102.935 76.4665 102.918 76.0411 102.918 75.632C102.918 56.0127 102.918 36.4098 102.918 16.7906C102.918 14.3034 102.851 11.7999 101.647 9.49267C100.477 7.25093 98.5708 6.04007 96.1462 5.51645C94.4741 5.15646 94.4574 5.20555 94.4239 3.48744C94.4239 3.24199 94.4239 3.01291 94.4239 2.76746C94.4574 1.18025 94.5577 1.06571 96.2131 1.06571C106.43 1.06571 116.63 1.06571 126.846 1.06571L126.796 1.00026Z" fill="black"/>
<path d="M124.756 220.592C114.908 220.592 105.059 220.592 95.21 220.592C94.3739 220.592 93.3372 220.772 93.3539 219.496C93.3706 217.238 93.0362 216.485 94.725 216.142C99.3401 215.225 101.547 211.953 101.832 207.256C101.898 206.193 101.882 205.113 101.882 204.049C101.882 184.61 101.882 165.171 101.882 145.732C101.882 143.408 101.731 141.117 100.628 138.974C99.4571 136.748 97.6512 135.439 95.1598 134.981C93.4208 134.67 93.3706 134.637 93.3539 132.985C93.3539 132.69 93.3873 132.379 93.3539 132.101C93.2034 130.89 93.8388 130.498 94.9759 130.579C95.2768 130.596 95.5778 130.579 95.8955 130.579C111.948 130.579 127.983 130.481 144.036 130.628C150.791 130.678 157.513 130.17 164.218 129.614C164.636 129.581 165.071 129.516 165.489 129.499C167.479 129.401 167.68 129.581 167.68 131.545C167.68 135.946 167.68 140.348 167.68 144.733C167.68 146.468 167.596 146.517 165.823 146.533C165.456 146.533 165.088 146.501 164.737 146.55C163.516 146.73 162.847 146.206 162.412 145.093C160.055 139.235 155.239 136.617 149.169 135.979C145.424 135.586 141.661 135.423 137.899 135.374C130.726 135.276 123.552 135.341 116.379 135.341C114.188 135.341 113.971 135.521 113.971 137.665C113.971 148.726 113.971 159.771 113.971 170.832C113.971 172.207 114.222 172.485 115.693 172.485C122.131 172.485 128.585 172.534 135.023 172.436C139.12 172.387 142.063 170.521 143.601 166.693C143.818 166.169 144.354 165.433 144.805 165.383C145.909 165.269 147.062 165.449 148.183 165.645C148.367 165.678 148.534 166.365 148.534 166.742C148.551 172.207 148.534 177.672 148.567 183.154C148.567 184.185 148.132 184.725 147.046 184.675C146.678 184.675 146.31 184.577 145.959 184.643C144.437 184.937 143.718 184.168 143.283 182.892C142.113 179.341 139.605 177.607 135.792 177.59C129.054 177.558 122.298 177.459 115.56 177.427C114.272 177.427 113.988 177.803 113.988 179.079C113.988 190.73 114.005 202.38 114.021 214.031C114.021 215.536 114.272 215.782 115.844 215.782C125.76 215.782 135.658 215.847 145.574 215.732C149.955 215.683 154.319 215.242 158.55 214.08C162.83 212.902 166.827 211.151 169.251 207.24C170.087 205.898 170.556 204.327 171.007 202.806C171.308 201.824 171.793 201.448 172.796 201.431C176.09 201.366 176.375 201.677 175.388 204.867C173.415 211.282 169.151 215.749 162.964 218.514C159.704 219.971 156.259 220.56 152.697 220.56C143.4 220.543 134.103 220.56 124.79 220.56L124.756 220.592Z" fill="black"/>
<path d="M334.874 220.593C325.143 220.593 315.428 220.593 305.696 220.593C305.278 220.593 304.843 220.626 304.425 220.577C304.141 220.544 303.79 220.479 303.589 220.315C302.736 219.595 303.405 216.568 304.475 216.208C305.395 215.897 306.331 215.668 307.201 215.275C309.324 214.31 310.645 212.608 311.197 210.465C311.632 208.812 311.9 207.078 311.9 205.376C311.95 185.707 311.933 166.023 311.933 146.354C311.933 143.72 311.782 141.135 310.462 138.746C309.274 136.618 307.468 135.375 305.027 134.982C303.305 134.704 303.305 134.688 303.305 132.937C303.305 132.577 303.322 132.217 303.288 131.873C303.171 130.908 303.689 130.58 304.576 130.597C305.178 130.597 305.796 130.597 306.398 130.597C324.691 130.597 342.984 130.662 361.277 130.548C365.692 130.515 370.123 129.959 374.537 129.566C377.58 129.304 377.58 129.255 377.564 132.233C377.564 136.389 377.564 140.562 377.564 144.718C377.564 146.518 377.547 146.518 375.758 146.518C375.39 146.518 375.022 146.485 374.671 146.551C373.467 146.731 372.798 146.273 372.347 145.111C370.909 141.446 368.317 138.795 364.555 137.338C363.1 136.782 361.561 136.258 360.023 136.095C356.579 135.735 353.117 135.44 349.673 135.391C341.83 135.293 333.988 135.358 326.146 135.358C324.106 135.358 323.939 135.522 323.922 137.469C323.922 148.465 323.922 159.461 323.922 170.457C323.922 172.372 324.056 172.519 325.962 172.519C332.166 172.519 338.369 172.519 344.556 172.503C347.616 172.503 350.308 171.586 352.198 169.083C352.8 168.281 353.284 167.348 353.619 166.415C353.92 165.565 354.422 165.303 355.241 165.336C355.425 165.336 355.609 165.336 355.793 165.336C358.518 165.303 358.518 165.303 358.518 167.937C358.518 172.748 358.518 177.559 358.518 182.386C358.518 184.66 358.435 184.578 356.211 184.726C354.388 184.857 353.569 184.071 353.034 182.549C351.913 179.277 349.505 177.706 346.027 177.657C339.222 177.575 332.416 177.51 325.611 177.461C324.19 177.461 323.972 177.739 323.922 179.179C323.889 180.128 323.922 181.077 323.922 182.026C323.922 192.547 323.922 203.069 323.922 213.59C323.922 215.685 324.039 215.799 326.196 215.799C335.56 215.799 344.924 215.848 354.271 215.783C358.903 215.75 363.518 215.423 367.982 214.163C370.407 213.476 372.815 212.526 374.989 211.299C378.216 209.467 380.256 206.603 380.941 202.954C381.159 201.792 381.744 201.465 382.948 201.465C386.576 201.465 385.991 201.711 385.356 204.41C384.085 209.745 380.824 213.803 376.192 216.797C372.012 219.497 367.38 220.626 362.381 220.61C353.201 220.561 344.021 220.61 334.841 220.61L334.874 220.593Z" fill="black"/>
<path d="M198.948 130.579C203.379 130.579 207.826 130.579 212.258 130.579C212.943 130.579 213.963 130.301 214.097 131.234C214.247 132.314 214.047 133.443 213.863 134.539C213.829 134.719 213.127 134.817 212.726 134.899C211.957 135.063 211.137 135.046 210.418 135.341C207.208 136.617 206.154 139.317 207.693 142.475C210.318 147.826 212.993 153.144 215.719 158.429C219.464 165.743 223.277 173.025 227.073 180.323C231.153 188.194 235.249 196.081 239.346 203.951C239.396 204.049 239.463 204.164 239.53 204.246C239.914 204.655 240.299 205.047 240.684 205.457C241.118 205.015 241.704 204.638 241.988 204.115C248.526 191.941 255.047 179.75 261.535 167.543C265.431 160.229 269.31 152.915 273.106 145.568C273.808 144.21 274.31 142.704 274.611 141.215C275.38 137.501 272.805 135.717 270.247 135.112C269.728 134.981 269.16 134.965 268.625 134.916C266.919 134.785 266.769 134.637 266.735 133.001C266.702 131.376 267.538 130.563 269.243 130.563C275.932 130.563 282.62 130.563 289.292 130.563C290.028 130.563 291.131 130.219 291.315 131.218C291.499 132.281 291.265 133.427 291.115 134.523C291.098 134.686 290.63 134.85 290.345 134.899C286.215 135.701 283.423 138.221 281.416 141.641C279.009 145.748 276.718 149.937 274.444 154.126C269.962 162.34 265.498 170.554 261.05 178.785C256.636 186.966 252.238 195.148 247.84 203.329C244.814 208.942 241.77 214.554 238.761 220.167C238.226 221.149 237.523 221.672 236.303 221.64C235.099 221.607 234.296 221.345 233.711 220.167C231.27 215.258 228.711 210.415 226.22 205.538C223.043 199.337 219.899 193.119 216.739 186.917C213.629 180.814 210.519 174.71 207.392 168.623C203.245 160.507 199.115 152.391 194.951 144.275C194.215 142.852 193.446 141.428 192.577 140.07C190.821 137.288 188.213 135.619 184.985 134.997C183.731 134.752 183.33 134.228 183.414 133.083C183.447 132.723 183.464 132.363 183.414 132.019C183.297 130.939 183.781 130.481 184.868 130.514C186.273 130.547 187.661 130.514 189.065 130.514C192.343 130.514 195.637 130.514 198.914 130.514L198.948 130.579Z" fill="black"/>
<path d="M239.48 1.39351C252.438 1.0008 267.253 0.542632 282.068 0.10083C282.369 0.10083 282.67 0.10083 282.971 0.0681041C284.058 -0.013711 284.46 0.444453 284.443 1.54078C284.393 5.4679 284.426 9.37866 284.426 13.3058C284.426 13.6003 284.426 13.8949 284.426 14.1894C284.426 17.2493 283.741 17.822 280.697 17.1511C280.246 17.0529 279.644 16.4638 279.577 16.0384C278.825 10.9659 273.624 6.43332 267.738 6.20423C263.073 6.00788 258.391 6.00788 253.709 5.95879C251.034 5.92606 248.359 5.95879 245.683 5.95879C243.76 5.95879 243.526 6.17151 243.526 7.97144C243.526 30.8469 243.526 53.7224 243.526 76.5979C243.526 78.9378 243.827 81.245 245.215 83.2413C246.335 84.8612 247.857 85.9739 249.847 86.4485C251.753 86.9066 252.723 88.8866 251.719 90.4901C251.452 90.9319 250.499 91.1446 249.847 91.1446C243.827 91.1937 237.824 91.161 231.805 91.161C229.564 91.161 227.307 91.161 225.066 91.161C223.026 91.161 222.875 91.0137 222.859 89.0665C222.842 87.0212 222.909 86.923 224.966 86.4157C228.327 85.5812 230.266 83.3395 230.968 80.1651C231.387 78.3324 231.42 76.3852 231.42 74.4871C231.453 52.3807 231.437 30.2742 231.437 8.1678C231.437 6.08969 231.269 5.89334 229.163 5.9097C222.173 5.95879 215.184 5.84425 208.211 6.15515C202.258 6.41695 198.128 9.54229 196.105 15.1221C195.403 17.0529 193.346 17.8874 191.306 17.102C190.47 16.7747 190.604 16.0875 190.604 15.4493C190.604 12.0622 190.604 8.67505 190.604 5.28791C190.604 4.09341 190.604 2.91527 190.604 1.72077C190.604 0.117193 190.704 -0.013711 192.376 0.0353781C196.573 0.149919 200.753 0.313549 204.95 0.42809C215.819 0.722625 226.688 1.01716 239.429 1.36078L239.48 1.39351Z" fill="black"/>
<path d="M20.4994 179.358C20.4994 190.583 20.4994 201.825 20.4994 213.05C20.4994 213.41 20.4994 213.77 20.4994 214.113C20.583 215.488 20.8673 215.799 22.2718 215.799C32.3547 215.799 42.4543 216.044 52.5372 215.684C61.5332 215.373 67.9374 210.841 71.4488 202.61C71.5492 202.397 71.6161 202.168 71.6829 201.939C72.4187 199.517 73.3216 198.994 75.9134 199.485C76.9501 199.681 77.0337 200.352 76.9668 201.219C76.5822 205.981 74.559 210.023 71.198 213.41C66.583 218.057 60.8643 220.495 54.2595 220.528C36.7524 220.609 19.262 220.56 1.75496 220.544C0.283491 220.544 0.149722 220.364 0.116279 218.875C0.0828371 217.315 0.852011 216.322 2.4238 215.897C5.63427 215.03 8.09228 211.937 8.37654 208.321C8.46015 207.257 8.47687 206.177 8.47687 205.114C8.47687 180.978 8.49359 156.859 8.51031 132.724C8.51031 131.273 9.24604 130.547 10.7175 130.547C16.1853 130.547 21.6532 130.547 27.121 130.547C27.9738 130.547 28.9938 130.269 29.1108 131.693C29.2947 134.164 29.1108 134.605 27.4889 134.949C23.9941 135.702 21.7869 137.796 21.0846 141.216C20.7335 142.885 20.5496 144.636 20.5328 146.338C20.4827 157.334 20.5161 168.33 20.5161 179.326L20.4994 179.358Z" fill="black"/>
<path d="M745.914 220.592C737.035 220.592 728.173 220.592 719.294 220.592C718.458 220.592 717.354 220.903 717.204 219.529C716.936 217.091 717.154 216.485 718.776 216.142C723.19 215.225 725.046 212.214 725.682 208.205C725.849 207.158 725.815 206.078 725.815 204.998C725.815 180.863 725.832 156.727 725.849 132.608C725.849 130.645 725.865 130.612 727.872 130.596C733.407 130.596 738.941 130.596 744.459 130.596C746.249 130.596 746.349 130.71 746.299 132.559C746.249 134.621 746.215 134.556 744.225 135.128C740.379 136.225 738.674 138.663 737.955 142.835C737.788 143.817 737.821 144.848 737.821 145.862C737.821 168.214 737.821 190.566 737.821 212.918C737.821 213.327 737.821 213.753 737.821 214.162C737.888 215.634 738.055 215.847 739.51 215.847C749.543 215.847 759.575 216.027 769.591 215.765C777.735 215.552 783.938 211.773 787.784 204.622C788.403 203.477 788.888 202.233 789.205 200.973C789.49 199.86 790.125 199.566 791.145 199.517C794.289 199.353 794.64 199.599 794.105 202.609C793.034 208.664 789.69 213.327 784.49 216.682C780.326 219.365 775.711 220.625 770.712 220.592C762.451 220.56 754.174 220.592 745.914 220.592Z" fill="black"/>
</svg>
