<svg width="18" height="19" viewBox="0 0 18 19" fill="none" xmlns="http://www.w3.org/2000/svg">
<path d="M11.2001 6.13345C10.5813 6.75232 9.74188 7.1 8.86667 7.1C7.99145 7.1 7.15208 6.75232 6.53321 6.13345C5.91434 5.51458 5.56667 4.67521 5.56667 3.8C5.56667 2.92479 5.91434 2.08542 6.53321 1.46655C7.15208 0.847678 7.99145 0.5 8.86667 0.5C9.74188 0.5 10.5813 0.847678 11.2001 1.46655C11.819 2.08542 12.1667 2.92479 12.1667 3.8C12.1667 4.67521 11.819 5.51458 11.2001 6.13345ZM0.514953 18.5C0.570495 17.5723 0.780314 16.659 1.13687 15.7982C1.55734 14.7831 2.17362 13.8608 2.95054 13.0839C3.72746 12.307 4.64979 11.6907 5.66488 11.2702C6.67997 10.8497 7.76794 10.6333 8.86667 10.6333C9.96539 10.6333 11.0534 10.8497 12.0685 11.2702C13.0835 11.6907 14.0059 12.307 14.7828 13.0839C15.5597 13.8608 16.176 14.7831 16.5965 15.7982C16.953 16.659 17.1628 17.5723 17.2184 18.5H0.514953Z" stroke="#303030"/>
</svg>
